<svg width="16" height="16" viewBox="0 0 16 16" fill="none" xmlns="http://www.w3.org/2000/svg">
<g clip-path="url(#clip0_51_2581)">
<path d="M8.90307 0.979966C8.43627 0.409834 7.5644 0.409836 7.09767 0.979966L6.43642 1.7876C6.3911 1.84295 6.3155 1.86321 6.24857 1.83793L5.27211 1.46911C4.58281 1.20876 3.82775 1.64469 3.70857 2.37183L3.53975 3.40187C3.52818 3.47247 3.47284 3.52781 3.40223 3.53939L2.37219 3.70821C1.64506 3.82739 1.20912 4.58244 1.46948 5.27175L1.8383 6.24821C1.86358 6.31513 1.84332 6.39073 1.78797 6.43605L0.980333 7.09727C0.410201 7.56407 0.410202 8.43593 0.980333 8.90273L1.78797 9.56393C1.84332 9.60927 1.86358 9.68487 1.8383 9.7518L1.46948 10.7283C1.20913 11.4175 1.64505 12.1726 2.37219 12.2918L3.40223 12.4606C3.47284 12.4722 3.52818 12.5275 3.53975 12.5981L3.70857 13.6281C3.82775 14.3553 4.58281 14.7912 5.27211 14.5309L6.24857 14.1621C6.3155 14.1368 6.3911 14.157 6.43642 14.2124L7.09767 15.02C7.5644 15.5901 8.43627 15.5901 8.90307 15.02L9.56427 14.2124C9.6096 14.157 9.6852 14.1368 9.75213 14.1621L10.7286 14.5309C11.4179 14.7912 12.173 14.3553 12.2921 13.6281L12.461 12.5981C12.4725 12.5275 12.5279 12.4722 12.5985 12.4606L13.6285 12.2918C14.3557 12.1726 14.7916 11.4175 14.5313 10.7283L14.1624 9.7518C14.1371 9.68487 14.1574 9.60927 14.2127 9.56393L15.0204 8.90273C15.5905 8.43593 15.5905 7.56407 15.0204 7.09727L14.2127 6.43605C14.1574 6.39073 14.1371 6.31513 14.1624 6.24821L14.5313 5.27175C14.7916 4.58244 14.3557 3.82739 13.6285 3.70821L12.5985 3.53939C12.5279 3.52781 12.4725 3.47247 12.461 3.40187L12.2921 2.37183C12.173 1.64469 11.4179 1.20875 10.7286 1.46911L9.75213 1.83793C9.6852 1.86321 9.6096 1.84295 9.56427 1.7876L8.90307 0.979966Z" fill="#3D88E0"/>
<path fill-rule="evenodd" clip-rule="evenodd" d="M12.0204 5.31307C12.2156 5.50833 12.2156 5.82492 12.0204 6.02018L7.35369 10.6868C7.25996 10.7806 7.13276 10.8333 7.00016 10.8333C6.86756 10.8333 6.74036 10.7806 6.64661 10.6868L3.97994 8.02016C3.78468 7.82489 3.78468 7.50836 3.97994 7.31309C4.1752 7.11782 4.49179 7.11782 4.68705 7.31309L7.00016 9.62616L11.3133 5.31307C11.5086 5.11781 11.8251 5.11781 12.0204 5.31307Z" fill="white"/>
</g>
<defs>
<clipPath id="clip0_51_2581">
<rect width="16" height="16" fill="white"/>
</clipPath>
</defs>
</svg>
