<svg width="24" height="24" viewBox="0 0 24 24" fill="none" xmlns="http://www.w3.org/2000/svg">
<path d="M8.12001 9.28995L12 13.1699L15.88 9.28995C15.9726 9.19736 16.0825 9.12392 16.2035 9.07382C16.3244 9.02371 16.4541 8.99792 16.585 8.99792C16.7159 8.99792 16.8456 9.02371 16.9665 9.07382C17.0875 9.12392 17.1974 9.19736 17.29 9.28995C17.3826 9.38253 17.456 9.49244 17.5061 9.6134C17.5562 9.73437 17.582 9.86402 17.582 9.99495C17.582 10.1259 17.5562 10.2555 17.5061 10.3765C17.456 10.4975 17.3826 10.6074 17.29 10.6999L12.7 15.2899C12.6075 15.3826 12.4976 15.4562 12.3766 15.5064C12.2557 15.5566 12.126 15.5824 11.995 15.5824C11.864 15.5824 11.7344 15.5566 11.6134 15.5064C11.4924 15.4562 11.3825 15.3826 11.29 15.2899L6.70001 10.6999C6.6073 10.6074 6.53375 10.4975 6.48357 10.3766C6.43339 10.2556 6.40756 10.1259 6.40756 9.99495C6.40756 9.86398 6.43339 9.73429 6.48357 9.61332C6.53375 9.49235 6.6073 9.38246 6.70001 9.28995C7.09001 8.90995 7.73001 8.89995 8.12001 9.28995Z" fill="#6E7175"/>
</svg>
