<svg width="16" height="16" viewBox="0 0 16 16" fill="none" xmlns="http://www.w3.org/2000/svg">
<g clip-path="url(#clip0_51_1470)">
<path d="M6.00016 8C7.28683 8 8.3335 6.95333 8.3335 5.66666C8.3335 4.37999 7.28683 3.33333 6.00016 3.33333C4.7135 3.33333 3.66683 4.37999 3.66683 5.66666C3.66683 6.95333 4.7135 8 6.00016 8ZM6.00016 4.66666C6.5535 4.66666 7.00016 5.11333 7.00016 5.66666C7.00016 6.22 6.5535 6.66666 6.00016 6.66666C5.44683 6.66666 5.00016 6.22 5.00016 5.66666C5.00016 5.11333 5.44683 4.66666 6.00016 4.66666ZM6.00016 9.16666C4.44016 9.16666 1.3335 9.94666 1.3335 11.5V12C1.3335 12.3667 1.6335 12.6667 2.00016 12.6667H10.0002C10.3668 12.6667 10.6668 12.3667 10.6668 12V11.5C10.6668 9.94666 7.56016 9.16666 6.00016 9.16666ZM2.8935 11.3333C3.4535 10.9467 4.80683 10.5 6.00016 10.5C7.1935 10.5 8.54683 10.9467 9.10683 11.3333H2.8935ZM10.6935 9.20666C11.4668 9.76666 12.0002 10.5133 12.0002 11.5V12.6667H14.0002C14.3668 12.6667 14.6668 12.3667 14.6668 12V11.5C14.6668 10.1533 12.3335 9.38666 10.6935 9.20666ZM10.0002 8C11.2868 8 12.3335 6.95333 12.3335 5.66666C12.3335 4.37999 11.2868 3.33333 10.0002 3.33333C9.64016 3.33333 9.30683 3.41999 9.00016 3.56666C9.42016 4.15999 9.66683 4.88666 9.66683 5.66666C9.66683 6.44666 9.42016 7.17333 9.00016 7.76666C9.30683 7.91333 9.64016 8 10.0002 8Z" fill="#6F747A"/>
</g>
<defs>
<clipPath id="clip0_51_1470">
<rect width="16" height="16" fill="white"/>
</clipPath>
</defs>
</svg>
