<svg width="20" height="20" viewBox="0 0 20 20" fill="none" xmlns="http://www.w3.org/2000/svg">
<path d="M14.4498 4.55001C14.2521 4.55001 14.0587 4.60865 13.8943 4.71854C13.7298 4.82842 13.6016 4.9846 13.526 5.16732C13.4503 5.35005 13.4305 5.55111 13.4691 5.7451C13.5076 5.93908 13.6029 6.11726 13.7427 6.25711C13.8826 6.39696 14.0608 6.49221 14.2547 6.53079C14.4487 6.56938 14.6498 6.54957 14.8325 6.47388C15.0152 6.3982 15.1714 6.27002 15.2813 6.10558C15.3912 5.94113 15.4498 5.74779 15.4498 5.55001C15.4498 5.28479 15.3445 5.03043 15.1569 4.8429C14.9694 4.65536 14.7151 4.55001 14.4498 4.55001ZM18.2832 6.56667C18.267 5.87525 18.1375 5.19117 17.8998 4.54167C17.6879 3.98595 17.3582 3.48274 16.9332 3.06667C16.5205 2.63953 16.0161 2.31182 15.4582 2.10834C14.8104 1.86347 14.1255 1.73101 13.4332 1.71667C12.5498 1.66667 12.2665 1.66667 9.99984 1.66667C7.73317 1.66667 7.44984 1.66667 6.5665 1.71667C5.87413 1.73101 5.18929 1.86347 4.5415 2.10834C3.98457 2.31388 3.48062 2.64131 3.0665 3.06667C2.63936 3.47932 2.31165 3.9837 2.10817 4.54167C1.8633 5.18946 1.73085 5.8743 1.7165 6.56667C1.6665 7.45001 1.6665 7.73334 1.6665 10C1.6665 12.2667 1.6665 12.55 1.7165 13.4333C1.73085 14.1257 1.8633 14.8106 2.10817 15.4583C2.31165 16.0163 2.63936 16.5207 3.0665 16.9333C3.48062 17.3587 3.98457 17.6861 4.5415 17.8917C5.18929 18.1365 5.87413 18.269 6.5665 18.2833C7.44984 18.3333 7.73317 18.3333 9.99984 18.3333C12.2665 18.3333 12.5498 18.3333 13.4332 18.2833C14.1255 18.269 14.8104 18.1365 15.4582 17.8917C16.0161 17.6882 16.5205 17.3605 16.9332 16.9333C17.36 16.5188 17.6901 16.0152 17.8998 15.4583C18.1375 14.8088 18.267 14.1248 18.2832 13.4333C18.2832 12.55 18.3332 12.2667 18.3332 10C18.3332 7.73334 18.3332 7.45001 18.2832 6.56667ZM16.7832 13.3333C16.7771 13.8623 16.6813 14.3864 16.4998 14.8833C16.3668 15.246 16.1531 15.5737 15.8748 15.8417C15.6045 16.1171 15.2775 16.3304 14.9165 16.4667C14.4196 16.6481 13.8955 16.7439 13.3665 16.75C12.5332 16.7917 12.2248 16.8 10.0332 16.8C7.8415 16.8 7.53317 16.8 6.69984 16.75C6.15058 16.7603 5.60367 16.6757 5.08317 16.5C4.73799 16.3567 4.42597 16.144 4.1665 15.875C3.88991 15.6073 3.67887 15.2793 3.54984 14.9167C3.34638 14.4126 3.23354 13.8766 3.2165 13.3333C3.2165 12.5 3.1665 12.1917 3.1665 10C3.1665 7.80834 3.1665 7.50001 3.2165 6.66667C3.22024 6.12589 3.31896 5.58996 3.50817 5.08334C3.65488 4.7316 3.88006 4.41805 4.1665 4.16667C4.41968 3.88015 4.73258 3.65259 5.08317 3.50001C5.59113 3.31671 6.1265 3.2209 6.6665 3.21667C7.49984 3.21667 7.80817 3.16667 9.99984 3.16667C12.1915 3.16667 12.4998 3.16667 13.3332 3.21667C13.8621 3.22274 14.3863 3.31854 14.8832 3.50001C15.2619 3.64055 15.6017 3.86904 15.8748 4.16667C16.1479 4.42265 16.3613 4.73562 16.4998 5.08334C16.685 5.59078 16.7809 6.12649 16.7832 6.66667C16.8248 7.50001 16.8332 7.80834 16.8332 10C16.8332 12.1917 16.8248 12.5 16.7832 13.3333ZM9.99984 5.72501C9.15468 5.72665 8.32897 5.97878 7.62705 6.44952C6.92513 6.92026 6.37849 7.5885 6.0562 8.3698C5.73391 9.1511 5.65044 10.0104 5.81633 10.8391C5.98222 11.6678 6.39003 12.4288 6.98823 13.0258C7.58643 13.6229 8.34818 14.0292 9.17722 14.1935C10.0063 14.3577 10.8654 14.2726 11.6461 13.9488C12.4267 13.625 13.0939 13.077 13.5633 12.3742C14.0327 11.6714 14.2832 10.8452 14.2832 10C14.2843 9.43759 14.1742 8.88051 13.9592 8.3608C13.7442 7.84109 13.4286 7.36901 13.0306 6.97171C12.6325 6.57442 12.1598 6.25974 11.6397 6.04578C11.1195 5.83182 10.5622 5.72281 9.99984 5.72501ZM9.99984 12.775C9.45099 12.775 8.91448 12.6123 8.45813 12.3073C8.00178 12.0024 7.6461 11.569 7.43607 11.062C7.22604 10.5549 7.17108 9.99693 7.27816 9.45863C7.38523 8.92033 7.64953 8.42587 8.03762 8.03778C8.42571 7.64969 8.92016 7.3854 9.45846 7.27833C9.99676 7.17125 10.5547 7.22621 11.0618 7.43624C11.5688 7.64627 12.0022 8.00195 12.3072 8.4583C12.6121 8.91464 12.7748 9.45116 12.7748 10C12.7748 10.3644 12.7031 10.7253 12.5636 11.062C12.4241 11.3986 12.2197 11.7045 11.9621 11.9622C11.7044 12.2199 11.3985 12.4243 11.0618 12.5638C10.7251 12.7032 10.3643 12.775 9.99984 12.775Z" fill="#6913D8"/>
</svg>
