<svg width="16" height="16" viewBox="0 0 16 16" fill="none" xmlns="http://www.w3.org/2000/svg">
<g clip-path="url(#clip0_102_178)">
<path d="M11 4C11.6122 3.99992 12.1999 4.24043 12.6364 4.66969C13.0729 5.09895 13.3232 5.68255 13.3333 6.29467C13.3933 6.87133 13.3847 7.722 12.9947 8.704C12.596 9.708 11.8187 10.8027 10.4 11.8667C10.33 11.9192 10.2503 11.9574 10.1654 11.9791C10.0806 12.0009 9.99238 12.0057 9.90571 11.9933C9.73067 11.9683 9.57274 11.8748 9.46666 11.7333C9.36057 11.5919 9.31502 11.4141 9.34002 11.2391C9.36503 11.064 9.45854 10.9061 9.59999 10.8C10.6427 10.018 11.24 9.258 11.582 8.59333C11.2613 8.67568 10.9269 8.68885 10.6007 8.63197C10.2746 8.5751 9.96432 8.44948 9.69048 8.26346C9.41664 8.07744 9.18552 7.83528 9.01247 7.55307C8.83942 7.27086 8.72839 6.95505 8.68678 6.62663C8.64517 6.29821 8.67392 5.9647 8.77112 5.64824C8.86831 5.33179 9.03174 5.03964 9.25053 4.7912C9.46932 4.54277 9.73847 4.34373 10.0401 4.20731C10.3417 4.0709 10.6689 4.00023 11 4ZM4.99999 4C5.61219 3.99992 6.19989 4.24043 6.63638 4.66969C7.07287 5.09895 7.32318 5.68255 7.33332 6.29467C7.39332 6.87133 7.38465 7.722 6.99466 8.704C6.59666 9.708 5.81866 10.8027 4.39999 11.8667C4.32995 11.9192 4.25025 11.9574 4.16544 11.9791C4.08063 12.0009 3.99238 12.0057 3.90571 11.9933C3.73067 11.9683 3.57274 11.8748 3.46665 11.7333C3.36057 11.5919 3.31502 11.4141 3.34002 11.2391C3.36503 11.064 3.45854 10.9061 3.59999 10.8C4.64266 10.018 5.23999 9.258 5.58199 8.59333C5.26135 8.67568 4.92686 8.68885 4.60073 8.63197C4.27461 8.5751 3.96432 8.44948 3.69048 8.26346C3.41664 8.07744 3.18552 7.83528 3.01247 7.55307C2.83941 7.27086 2.72839 6.95505 2.68678 6.62663C2.64517 6.29821 2.67392 5.9647 2.77111 5.64824C2.86831 5.33179 3.03174 5.03964 3.25053 4.7912C3.46932 4.54277 3.73847 4.34373 4.0401 4.20731C4.34174 4.0709 4.66894 4.00023 4.99999 4Z" fill="white"/>
</g>
<defs>
<clipPath id="clip0_102_178">
<rect width="16" height="16" fill="white"/>
</clipPath>
</defs>
</svg>
