<svg width="16" height="16" viewBox="0 0 16 16" fill="none" xmlns="http://www.w3.org/2000/svg">
<g clip-path="url(#clip0_51_1467)">
<path d="M9.3335 3.99999V2.66666H6.66683V3.99999H9.3335ZM2.66683 6V12C2.66683 12.3667 2.96683 12.6667 3.3335 12.6667H12.6668C13.0335 12.6667 13.3335 12.3667 13.3335 12V6C13.3335 5.63333 13.0335 5.33333 12.6668 5.33333H3.3335C2.96683 5.33333 2.66683 5.63333 2.66683 6ZM13.3335 3.99999C14.0735 3.99999 14.6668 4.59333 14.6668 5.33333V12.6667C14.6668 13.4067 14.0735 14 13.3335 14H2.66683C1.92683 14 1.3335 13.4067 1.3335 12.6667L1.34016 5.33333C1.34016 4.59333 1.92683 3.99999 2.66683 3.99999H5.3335V2.66666C5.3335 1.92666 5.92683 1.33333 6.66683 1.33333H9.3335C10.0735 1.33333 10.6668 1.92666 10.6668 2.66666V3.99999H13.3335Z" fill="#6F747A"/>
</g>
<defs>
<clipPath id="clip0_51_1467">
<rect width="16" height="16" fill="white"/>
</clipPath>
</defs>
</svg>
