<?xml version="1.0" encoding="utf-8"?>
<!-- Generator: Adobe Illustrator 27.5.0, SVG Export Plug-In . SVG Version: 6.00 Build 0)  -->
<svg version="1.1" xmlns="http://www.w3.org/2000/svg" xmlns:xlink="http://www.w3.org/1999/xlink" x="0px" y="0px"
	 viewBox="0 0 750 500" style="enable-background:new 0 0 750 500;" xml:space="preserve">
<g id="BACKGROUND">
	<rect style="fill:#FFFFFF;" width="750" height="500"/>
</g>
<g id="OBJECTS">
	<ellipse style="opacity:0.8;fill:#DBDAEA;" cx="373" cy="428.869" rx="328" ry="6"/>
	<g>
		<path style="fill:#BAACA6;" d="M329.796,407.143c0,0-10.561,7.549-17.099,7.867c-6.539,0.316-22.52,8.73-4.924,11.16
			c0,0,21.832-0.283,26.947-7.471l0.301,6.186l9.807-0.475c0,0,5.86-14.395-0.865-17.951L329.796,407.143z"/>
		<path style="fill:#BAACA6;" d="M375.173,407.143c0,0,10.561,7.549,17.099,7.867c6.539,0.316,22.52,8.73,4.924,11.16
			c0,0-21.831-0.283-26.946-7.471l-0.301,6.186l-9.807-0.475c0,0-5.86-14.395,0.865-17.951L375.173,407.143z"/>
		<path style="fill:#3E3538;" d="M367.408,230.246c-5.33,0.02-9.898,4.841-11.992,11.781c-1.483-0.357-3.025-0.568-4.621-0.568
			c-0.654,0-1.296,0.036-1.935,0.096c-2.204-6.714-6.738-11.329-11.973-11.309c-7.078,0.026-12.816,8.523-13.193,19.21h-0.043
			l0.026,0.493c-0.004,0.251-0.023,0.499-0.022,0.751c0.005,1.396,0.105,2.756,0.285,4.073l6.714,154.19
			c0,0,6.579,8.047,14.746,0.406l2.722-130.49c0.875,0.119,1.763,0.202,2.674,0.202c1.711,0,3.362-0.24,4.945-0.647l5.431,130.529
			c6.688,6.393,14.746,0.406,14.746,0.406l3.439-152.757c0.122-4.559,0.235-11.375,0.22-15.01
			C379.532,230.336,374.762,230.216,367.408,230.246z"/>
		<g>
			<path style="fill:#5B4948;" d="M330.169,165.007c-31.921,21.085-61.066,64.837-33.638,101.085
				c3.939,5.205,10.268,7.908,16.418,4.305c5.14-3.011,8.262-11.189,4.305-16.419c-8.866-11.717-9.76-23.452-4.025-35.878
				c6.175-13.381,17.187-24.532,29.053-32.37c5.447-3.598,7.748-10.542,4.305-16.419
				C343.419,163.903,335.634,161.398,330.169,165.007L330.169,165.007z"/>
		</g>
		<g>
			<path style="fill:#5B4948;" d="M366.586,185.314c13.715,10.284,33.154,5.247,46.421-3.169
				c15.595-9.892,21.233-27.362,23.874-44.67c0.984-6.46-1.528-12.876-8.382-14.761c-5.739-1.579-13.773,1.905-14.761,8.381
				c-1.46,9.57-3.314,23.208-10.779,28.892c-4.377,3.334-8.055,5.035-12.977,6.4c-4.717,1.309-7.199,1.265-11.283-1.797
				c-5.246-3.934-13.396-0.854-16.418,4.305C358.689,175.027,361.364,181.398,366.586,185.314L366.586,185.314z"/>
		</g>
		<g>
			<path style="fill:#EFE6E1;" d="M333.987,162.799c0.776-0.355,1.559-0.683,2.345-0.991
				C335.546,162.116,334.764,162.443,333.987,162.799z"/>
			<path style="fill:#EFE6E1;" d="M374.163,162.992c0.703,0.331,1.403,0.678,2.096,1.055
				C375.566,163.669,374.866,163.323,374.163,162.992z"/>
			<path style="fill:#EFE6E1;" d="M331.486,164.047c0.779-0.425,1.567-0.815,2.36-1.181
				C333.054,163.232,332.266,163.622,331.486,164.047z"/>
			<path style="fill:#EFE6E1;" d="M357.559,206.369l16.602-43.379c-6.29-2.96-12.967-4.184-19.41-5.812
				c-0.316-0.08-0.608-0.088-0.879-0.042c-0.269-0.047-0.563-0.039-0.878,0.042c-3.79,0.958-7.661,1.777-11.487,2.889
				L357.559,206.369z"/>
			<path style="fill:#EFE6E1;" d="M339.016,160.84c0.826-0.274,1.655-0.531,2.486-0.772
				C340.67,160.31,339.841,160.566,339.016,160.84z"/>
			<path style="fill:#EFE6E1;" d="M336.501,161.741c0.794-0.307,1.593-0.593,2.395-0.86
				C338.094,161.149,337.295,161.434,336.501,161.741z"/>
		</g>
		<g>
			<g>
				<g>
					<path style="fill:#D8914C;" d="M359.56,93.971c0.025,0.586,0.107,1.176,0.264,1.762c1.34,5.037,6.139,10.504,11.826,9.946
						c3.72-0.365,7.295-1.807,9.232-5.234c1.507-2.667,2.223-6.276,1.21-9.267c-1.944-5.741-8.37-10.803-14.713-8.437
						c-2.787,1.04-4.903,2.443-6.542,4.965c-0.781,1.202-1.389,2.67-1.244,4.134c0.016,0.156,0.043,0.311,0.06,0.466
						c-0.012,0.049-0.012,0.096-0.021,0.145c-0.004,0.021-0.008,0.043-0.01,0.064C359.528,93.016,359.505,93.504,359.56,93.971z
						 M367.903,97.836c-0.023-0.009-0.035-0.013-0.055-0.021c0.256,0.028,0.511,0.076,0.768,0.097
						C368.305,97.872,368.081,97.85,367.903,97.836z M367.554,97.824c-0.006-0.003-0.016-0.008-0.021-0.011
						c0.008,0.003,0.016,0.008,0.023,0.011C367.555,97.824,367.554,97.824,367.554,97.824z"/>
					<rect x="350.844" y="142.747" style="fill:#FEAF9A;" width="13.188" height="22.749"/>
					<path style="fill:#FFB39D;" d="M364.031,150.149c-1.902,1.572-4.163,2.488-6.593,2.488c-2.43,0-4.694-0.916-6.595-2.488v-7.402
						h13.188V150.149z"/>
					<path style="fill:#FFB39D;" d="M334.402,119.964c0.138,5.375-0.421,11.749,1.607,16.837
						c6.127,15.377,37.705,15.785,43.063-0.498c1.76-5.349,1.343-11.706,1.426-17.27c0.092-6.158-0.242-12.343-0.803-18.474
						c-0.936-10.22-12.634-14.093-21.095-14.166c-7.664-0.065-22.507,4.251-23.411,14.153
						C334.598,106.987,334.239,113.498,334.402,119.964z"/>
					<g>
						<g>
							<path style="fill:#FFB39D;" d="M378.817,116.188C378.851,116.1,378.845,116.118,378.817,116.188L378.817,116.188z"/>
						</g>
						<g>
							<path style="fill:#FFB39D;" d="M336.058,116.188C336.023,116.1,336.031,116.118,336.058,116.188L336.058,116.188z"/>
							<path style="fill:#FFB39D;" d="M337.236,118.717c-0.292-0.71-0.604-1.383-0.97-2.055c-0.073-0.133-0.166-0.363-0.209-0.474
								c0.031,0.083,0.097,0.259,0.212,0.581c-0.121-0.322-0.257-0.639-0.404-0.948c-0.701-0.917-0.737-0.954-0.105-0.112
								c-0.645-0.907-1.789-1.667-2.944-1.735c-0.128-0.047-0.251-0.096-0.394-0.131c-1.736-0.439-3.504,0.263-4.662,1.581
								c-2.527,2.876-1.781,7.267,0.403,10.058c0.942,1.205,2.671,1.976,4.189,1.911c2.012-0.086,3.634-1.348,4.579-3.076
								C337.888,122.576,337.989,120.552,337.236,118.717z"/>
						</g>
					</g>
					<g>
						<g>
							<path style="fill:#F48364;" d="M373.048,113.394c-3.376,0.806-6.028,2.863-7.319,6.116c-1.385,3.488,1.123,6.617,3.751,8.554
								c-0.166-0.631-0.331-1.262-0.497-1.893c-0.944,1.743-2.242,1.266-3.805,1.319c-0.724,0.025-1.018,0.715-0.759,1.322
								c1.529,3.592,5.816,1.38,6.954-1.245c0.304-0.702,0.205-1.465-0.496-1.893c-6.049-3.687-1.772-8.672,2.55-11.38
								C373.904,113.995,373.594,113.264,373.048,113.394L373.048,113.394z"/>
						</g>
					</g>
					<path style="fill:#49291C;" d="M377.804,120.369c0,1.985-0.919,3.594-2.054,3.594c-1.134,0-2.054-1.609-2.054-3.594
						c0-1.985,0.92-3.594,2.054-3.594C376.885,116.775,377.804,118.384,377.804,120.369z"/>
					<path style="fill:#49291C;" d="M354.554,120.369c0,1.985-0.919,3.594-2.054,3.594c-1.134,0-2.054-1.609-2.054-3.594
						c0-1.985,0.92-3.594,2.054-3.594C353.635,116.775,354.554,118.384,354.554,120.369z"/>
					<g>
						<path style="fill:#FFFFFF;" d="M364.015,136.369c3.294-2.095-7.095-0.75-9.336-3.5
							C354.679,132.869,355.106,142.035,364.015,136.369z"/>
					</g>
					<g>
						<path style="fill:#D8914C;" d="M334.599,116.199c-6.788-7.613-7.615-24.121,1.497-30.61c1.185-0.843,2.922-0.202,3.613,0.947
							c4.948,8.23-3.07,18.807-1.376,27.489C338.729,116.057,336.202,117.997,334.599,116.199L334.599,116.199z"/>
					</g>
				</g>
				<path style="fill:#3F1C25;" d="M350.177,162.545c0.528-2.772,3.813-4.315,6.364-3.614c0.752,0.207,1.421,0.586,1.984,1.078
					c1.944-0.403,3.792,0.79,4.384,2.665c0.273,0.862,0.381,1.728,0.488,2.627c-0.151-1.256,0.076,0.493,0.119,0.918
					c0.065,0.647-0.072,1.348-0.164,1.971c-0.349,2.331-2.232,4.629-4.539,5.263c-3.149,0.867-6.125-1.817-7.685-4.259
					C349.848,167.189,349.746,164.808,350.177,162.545z"/>
				<polygon style="fill:#FFE7D6;" points="346.193,159.408 350.889,154.208 357.332,157.136 357.387,157.241 357.439,157.136 
					363.884,154.208 368.579,159.408 364.284,170.6 357.387,160.943 350.488,170.6 				"/>
				<polygon style="fill:#3F1C25;" points="360.012,171.036 365.345,239.036 359.012,249.702 351.345,239.036 355.012,171.036 				
					"/>
			</g>
		</g>
		<path style="fill:#D8914C;" d="M377.021,81.213c-0.883-3.088-3.29-5.684-7.835-7.316c-9.258-3.323-27.075-1.176-35.159,5.013
			c-12.917,9.888-6.073,31.19,8.434,34.684C356.575,116.993,381.564,97.111,377.021,81.213z"/>
		<g>
			<path style="fill:#D8914C;" d="M374.559,110.489c0.924,0.046,1.849,0.093,2.773,0.139c2.087,0.105,4.451-1.318,4.451-3.592
				c0-2.127-2.155-3.621-4.16-3.596c-1.021,0.013-2.044,0.092-3.064,0.143c-1.879,0.094-3.453,1.5-3.453,3.453
				C371.106,108.989,372.68,110.395,374.559,110.489L374.559,110.489z"/>
		</g>
		<path style="fill:#5A4848;" d="M376.259,164.047c-0.693-0.378-1.394-0.725-2.098-1.057l-16.602,43.379l-16.052-46.303
			c-3.406,0.99-6.776,2.211-10.021,3.98c-2.941,1.604-4.86,4.405-6.67,8.253c-1.253,2.657-2.534,5.81-2.996,9.153l-0.47,70.249
			l62,0.665l2.57-70.914c-0.463-3.342-1.74-6.496-2.991-9.153C381.118,168.452,379.202,165.651,376.259,164.047z"/>
		<path style="fill:#5A4848;" d="M376.259,164.047c-0.693-0.378-1.394-0.725-2.098-1.057l-16.602,43.379l-16.052-46.303
			c-3.406,0.99-6.776,2.211-10.021,3.98c-2.941,1.604-4.86,4.405-6.67,8.253c-1.253,2.657-2.534,5.81-2.996,9.153l-0.47,70.249
			l62,0.665l2.57-70.914c-0.463-3.342-1.74-6.496-2.991-9.153C381.118,168.452,379.202,165.651,376.259,164.047z"/>
		<path style="fill:#FFB39D;" d="M436.51,107.57c-1.232-2.96-3.22-4.649-5.535-3.541c-1.301,0.623-6.555,16.554-7.435,15.06
			c-0.018-0.028-0.027-0.047-0.055-0.091c-0.147-0.228-0.422-1.022-0.058-0.028c-0.753-2.051-2.694-3.418-4.935-2.802
			c-1.977,0.544-3.557,2.88-2.803,4.935c0.605,1.648,1.48,3.039,2.758,4.255c0.041,0.04,0.085,0.072,0.127,0.111
			c0.213,0.453,0.523,0.879,0.968,1.25c0.454,0.38,0.925,0.737,1.401,1.087c0.033,0.037,0.061,0.069,0.112,0.125
			c0.614,0.609,1.337,1.031,2.169,1.264c1.183,0.469,2.547,0.653,3.813,0.518C438.118,128.528,439.406,114.533,436.51,107.57z
			 M426.231,114.773c0.038,0.281,0.085,0.564,0.145,0.85c-0.066-0.313-0.114-0.551-0.152-0.735
			C426.227,114.849,426.229,114.804,426.231,114.773z M423.98,119.514c-0.002-0.002-0.004-0.004-0.007-0.006
			C424.326,119.304,424.223,119.398,423.98,119.514z"/>
		<path style="fill:#FFB39D;" d="M316.179,288.151c2.964,1.223,5.564,1.011,6.418-1.409c0.479-1.36-7.069-16.341-5.39-15.907
			c0.032,0.008,0.052,0.014,0.103,0.025c0.264,0.057,1.021,0.424,0.06-0.021c1.983,0.918,4.322,0.513,5.471-1.508
			c1.013-1.782,0.478-4.551-1.508-5.471c-1.594-0.737-3.196-1.102-4.959-1.059c-0.057,0.001-0.111,0.009-0.168,0.011
			c-0.471-0.169-0.993-0.251-1.569-0.199c-0.589,0.052-1.174,0.132-1.759,0.222c-0.049-0.002-0.092-0.006-0.168-0.009
			c-0.865,0.003-1.674,0.216-2.428,0.64c-1.167,0.504-2.262,1.338-3.062,2.33C300.222,274.469,309.207,285.276,316.179,288.151z
			 M318.353,275.79c-0.226-0.171-0.459-0.339-0.703-0.499c0.267,0.176,0.47,0.309,0.627,0.412
			C318.303,275.733,318.332,275.767,318.353,275.79z M316.592,270.846c0.003,0,0.006,0,0.009,0
			C316.497,271.239,316.503,271.1,316.592,270.846z"/>
	</g>
	<g>
		<path style="fill:#704A3D;" d="M474.631,395.798c0,0-2.56,12.727-7.119,17.425c-4.56,4.697-10.488,21.756,4.025,11.516
			c0,0,15.754-15.115,14.582-23.86l4.443,4.313l6.841-7.044c0,0-5.549-14.517-12.892-12.523L474.631,395.798z"/>
		<path style="fill:#D9924E;" d="M564.869,260.498c-0.947-11.364-5.174-20.443-14.928-26.702c-7.66-4.915-17.561-5.838-26.418-5.6
			c-4.82,0.129-9.674,0.665-14.404,1.584c-2.977,0.578-5.646,1.662-8.435,2.518c-2.746-1.604-5.998-2.207-9-0.972
			c-13.729,5.649-22.104,19.311-31.332,30.379c-9.639,11.563-18.795,23.411-26.84,36.145c-7.064,11.18-13.809,24.434-10.904,38.057
			c3.289,15.421,17.426,23.134,31.922,24.858c10.674,1.27,21.715,0.78,32.463,1.304c12.082,0.589,24.412,0.06,36.225-2.697
			c12.19-2.846,23.588-9.528,30.941-19.737c7.236-10.045,7.451-24.227,8.246-36.057
			C563.359,289.314,566.063,274.789,564.869,260.498z"/>
		<g>
			<g>
				<path style="fill:#C4A386;" d="M496.277,297.507c-1.699,1.044-3.48,1.931-5.284,2.777c-1.117,0.525-2.249,1.018-3.382,1.508
					c-2.572,1.113,2.555-1.061-0.137,0.053c-0.799,0.332-1.602,0.656-2.404,0.981c-6.738,2.729-13.533,5.316-20.263,8.068
					c-14.424,5.897-28.99,12.102-40.996,22.26c-11.236,9.507-15.59,24.852-6.665,37.498c12.512,17.726,35.598,22.473,54.997,28.789
					c6.221,2.025,13.088-2.296,14.762-8.381c1.795-6.526-2.167-12.738-8.381-14.761c-15.021-4.89-32.227-7.991-41.785-19.228
					c1.113,1.308-0.545-1.15-0.715-1.467c-0.552-1.168-0.422-0.852,0.391,0.949c-0.229-0.612-0.368-1.251-0.505-1.888
					c1.002,4.676,0.677-2.7-0.031,2.088c0.156-1.057,1.547-4.296-0.065-0.686c0.454-1.017,1.068-1.956,1.696-2.871
					c-2.13,3.102,0.279-0.209,0.954-0.91c0.923-0.959,1.932-1.833,2.947-2.693c1.004-0.809,0.86-0.709-0.432,0.3
					c0.701-0.537,1.427-1.042,2.151-1.548c5.111-3.573,10.714-6.443,16.329-9.129c3.191-1.527,6.433-2.948,9.685-4.339
					c-2.28,0.975,2.386-0.979,3.021-1.24c1.614-0.66,3.233-1.307,4.853-1.953c10.419-4.157,21.773-7.557,31.372-13.453
					C521.55,310.147,509.504,289.383,496.277,297.507L496.277,297.507z"/>
			</g>
		</g>
		<path style="fill:#FFB39D;" d="M387.898,265.505c-6.501,1.369-11.752,7.879-10.189,14.559c0.894,3.82,4.764,4.382,7.407,2.852
			c0.349,0.059,0.721,0.088,1.118,0.076c3.379-0.106,6.672-1.08,10.063-0.805c2.784,0.226,5.06-2.483,5.084-5.084
			C401.453,269.192,395.804,263.842,387.898,265.505z"/>
		<g>
			<path style="fill:#2D294C;" d="M485.023,152.602c-0.002-0.021-0.006-0.043-0.01-0.064c-0.01-0.048-0.01-0.096-0.022-0.145
				c0.018-0.155,0.045-0.31,0.061-0.466c0.145-1.464-0.463-2.933-1.244-4.134c-1.639-2.522-3.756-3.925-6.543-4.965
				c-6.342-2.366-12.768,2.696-14.713,8.437c-1.012,2.99-0.297,6.599,1.211,9.267c1.938,3.428,5.512,4.869,9.232,5.234
				c5.688,0.558,10.486-4.91,11.826-9.946c0.156-0.585,0.238-1.175,0.264-1.762C485.141,153.592,485.117,153.103,485.023,152.602z
				 M476.029,158c0.256-0.021,0.512-0.069,0.768-0.097c-0.02,0.008-0.031,0.012-0.055,0.021
				C476.564,157.937,476.34,157.959,476.029,158z M477.09,157.911c0.008-0.003,0.016-0.008,0.023-0.011
				c-0.006,0.003-0.016,0.008-0.021,0.011H477.09z"/>
			<rect x="480.613" y="202.835" style="fill:#FEAF9A;" width="13.188" height="22.749"/>
			<path style="fill:#FFB39D;" d="M480.613,210.237c1.902,1.572,4.164,2.488,6.594,2.488c2.43,0,4.693-0.915,6.594-2.488v-7.402
				h-13.188V210.237z"/>
			<path style="fill:#FFB39D;" d="M509.457,160.634c-0.904-9.902-15.748-14.219-23.412-14.153
				c-8.461,0.073-20.158,3.946-21.094,14.166c-0.561,6.13-0.895,12.315-0.803,18.474c0.082,5.564-0.334,11.922,1.426,17.27
				c5.357,16.283,36.936,15.876,43.063,0.498c2.027-5.088,1.469-11.462,1.605-16.837
				C510.406,173.585,510.047,167.074,509.457,160.634z"/>
			<g>
				<g>
					<path style="fill:#FFB39D;" d="M465.828,176.275C465.795,176.188,465.801,176.205,465.828,176.275L465.828,176.275z"/>
				</g>
				<g>
					<path style="fill:#FFB39D;" d="M508.588,176.275C508.621,176.188,508.613,176.205,508.588,176.275L508.588,176.275z"/>
					<path style="fill:#FFB39D;" d="M507.713,184.404c0.945,1.728,2.566,2.989,4.578,3.076c1.519,0.065,3.248-0.706,4.189-1.911
						c2.186-2.792,2.932-7.183,0.404-10.058c-1.158-1.318-2.926-2.02-4.662-1.581c-0.143,0.036-0.266,0.085-0.395,0.131
						c-1.154,0.068-2.299,0.828-2.943,1.735c0.633-0.842,0.596-0.805-0.105,0.112c-0.147,0.309-0.283,0.626-0.404,0.948
						c0.115-0.322,0.182-0.497,0.213-0.581c-0.043,0.111-0.137,0.341-0.209,0.474c-0.365,0.672-0.678,1.345-0.971,2.055
						C506.656,180.639,506.758,182.663,507.713,184.404z"/>
				</g>
			</g>
			<path style="fill:#49291C;" d="M465.842,179.456c0,1.985,0.918,3.594,2.053,3.594c1.135,0,2.055-1.609,2.055-3.594
				c0-1.985-0.92-3.594-2.055-3.594C466.76,175.862,465.842,177.471,465.842,179.456z"/>
			<path style="fill:#49291C;" d="M489.092,179.456c0,1.985,0.918,3.594,2.053,3.594c1.135,0,2.055-1.609,2.055-3.594
				c0-1.985-0.92-3.594-2.055-3.594C490.01,175.862,489.092,177.471,489.092,179.456z"/>
			<g>
				<path style="fill:#2D294C;" d="M488.217,169.241c1.689-0.197,3.185-0.112,4.807,0.416c1.555,0.507,3.02,1.336,4.668,0.891
					c1.084-0.292,1.682-1.425,1.414-2.491c-1.121-4.463-8.094-4.205-11.496-3.305C485.178,165.395,485.607,169.545,488.217,169.241
					L488.217,169.241z"/>
			</g>
			<g>
				<path style="fill:#2D294C;" d="M471.42,169.241c-1.338-0.197-2.522-0.112-3.805,0.416c-1.229,0.507-2.389,1.336-3.693,0.891
					c-0.855-0.292-1.33-1.425-1.117-2.491c0.887-4.463,6.402-4.205,9.096-3.305C473.822,165.395,473.482,169.545,471.42,169.241
					L471.42,169.241z"/>
			</g>
			<g>
				<path style="fill:#2D294C;" d="M510.047,176.286c6.787-7.613,7.615-24.121-1.498-30.61c-1.184-0.843-2.922-0.202-3.613,0.947
					c-4.947,8.23,3.07,18.807,1.377,27.489C505.916,176.145,508.443,178.085,510.047,176.286L510.047,176.286z"/>
			</g>
			<path style="fill:#2D294C;" d="M470.613,126.286c5.291-0.954,8.562,8.72,14.704,11.909c4.37,2.268,7.656,1.608,11.716-0.812
				c5.162-3.077,11.139,1.218,11.164,6.796c0.078,16.976-29.828,16.461-38.701,9.83c-7.005-5.235-10.307-15.459-4.815-22.886
				C466.979,128.013,468.902,126.594,470.613,126.286z"/>
			<g>
				<path style="fill:#FFFFFF;" d="M488.42,189.491c0.361,2.342-0.324,4.856-2.359,6.264c-1.855,1.283-4.875,1.339-6.004-0.922
					c-0.212-0.423,0.139-1.043,0.661-0.861c1.474,0.515,2.62,1.129,4.12,0.311c1.625-0.887,2.125-2.863,1.926-4.568
					C486.652,188.773,488.276,188.554,488.42,189.491L488.42,189.491z"/>
			</g>
			
				<line style="fill:none;stroke:#3F1C25;stroke-linecap:round;stroke-miterlimit:10;" x1="511.828" y1="174.061" x2="496.834" y2="180.535"/>
			<g>
				<g>
					<path style="fill:#F48364;" d="M472.728,172.033c3.479,3.729,6.326,9.646-0.468,11.651c-0.788,0.233-1.079,0.945-0.966,1.702
						c0.423,2.832,3.996,6.071,6.4,2.991c0.401-0.514,0.3-1.26-0.388-1.469c-1.495-0.455-2.882-0.333-3.345-2.257
						c-0.322,0.567-0.644,1.135-0.966,1.702c3.154-1.24,5.483-3.133,5.833-6.659c0.357-3.595-2.597-6.865-5.506-8.434
						C472.828,170.992,472.344,171.622,472.728,172.033L472.728,172.033z"/>
				</g>
			</g>
			<g>
				<path style="fill:none;stroke:#3F1C25;stroke-miterlimit:10;" d="M497,180.619c0,5.661-3.791,10.25-8.467,10.25
					c-4.677,0-8.468-4.589-8.468-10.25c0-5.661,3.791-10.25,8.468-10.25C493.209,170.369,497,174.958,497,180.619z"/>
				<ellipse style="fill:none;stroke:#3F1C25;stroke-miterlimit:10;" cx="465.582" cy="180.619" rx="7.799" ry="10.25"/>
				<path style="fill:none;stroke:#3F1C25;stroke-miterlimit:10;" d="M480.065,180.619c0,0-4.735-4.847-6.741-0.835"/>
			</g>
			<path style="fill:#F48364;" d="M472.261,183.685c1.372-0.405,2.335-0.975,2.995-1.649h3.078c-0.766,1.593-2.27,2.805-3.899,3.659
				c0.651,0.848,1.728,0.866,2.873,1.214c0.686,0.209,0.788,0.955,0.388,1.469c-2.404,3.081-5.977-0.159-6.401-2.991
				C471.182,184.63,471.473,183.917,472.261,183.685z"/>
		</g>
		<g>
			<g>
				<g>
					<path style="fill:#B8B8B8;" d="M535.875,397.809h-3.42h-3.205h-25.584c0.75-1.278,1.186-2.762,1.186-4.35
						c0-3.596-2.201-6.675-5.328-7.971v-62.984h-7.342v63.336c-2.725,1.45-4.582,4.316-4.582,7.618c0,1.588,0.438,3.071,1.186,4.35
						h-25.582h-3.205h-3.42v7.342h3.42v10.414h3.205V405.15h31.422v10.414h3.203V405.15h31.422v10.414h3.205V405.15h3.42V397.809z"
						/>
					<path style="fill:#55637A;" d="M523.832,420.254c0,3.879,3.143,7.021,7.022,7.021c3.877,0,7.019-3.143,7.019-7.021
						c0-3.877-3.143-7.02-7.019-7.02C526.975,413.234,523.832,416.377,523.832,420.254z"/>
				</g>
				<path style="fill:#55637A;" d="M454.58,420.254c0,3.879,3.143,7.021,7.02,7.021c3.877,0,7.022-3.143,7.022-7.021
					c0-3.877-3.145-7.02-7.022-7.02C457.723,413.234,454.58,416.377,454.58,420.254z"/>
			</g>
			<path style="fill:#55637A;" d="M489.207,420.254c0,3.879,3.143,7.021,7.02,7.021c3.877,0,7.02-3.143,7.02-7.021
				c0-3.877-3.143-7.02-7.02-7.02C492.35,413.234,489.207,416.377,489.207,420.254z"/>
		</g>
		<g>
			<path style="fill:#2D294C;" d="M455.061,233.846c-1.364,7.723-3.306,14.919-8.305,19.96c-4.112,4.147-9.979,6.891-15.833,8.733
				c-7.723,2.43-12.911,2.962-20.658,3.246c-3.478,0.128-6.96,0.035-10.433-0.153c-1.659-0.089-3.314-0.241-4.968-0.402
				c-0.799-0.082-1.599-0.173-2.396-0.272c2.509,0.299-1.197-0.211-1.396-0.244c-6.448-1.058-12.891,1.58-14.761,8.381
				c-1.594,5.794,1.918,13.701,8.382,14.761c18.232,2.99,37.455,2.943,55.13-2.994c9.268-3.113,17.882-8.012,24.791-14.98
				c7.9-7.967,11.677-18.827,13.59-29.657c1.137-6.435-1.638-12.906-8.381-14.761C463.97,223.854,456.201,227.398,455.061,233.846
				L455.061,233.846z"/>
		</g>
		<path style="fill:#704A3D;" d="M423.367,407.975c0,0-10.561,7.551-17.098,7.867c-6.539,0.318-22.52,8.732-4.924,11.162
			c0,0,21.83-0.283,26.947-7.471l0.299,6.184l9.807-0.473c0,0,5.861-14.395-0.863-17.953L423.367,407.975z"/>
		<path style="fill:#DBB896;" d="M440.641,409.131c2.371,0,5.318-27.582,7.227-30.924c6.339-11.1,23.092-20.396,34.621-24.805
			c10.918-4.174,23.873-3.447,34.125-9.366c22.512-12.998,10.481-39.442-14.35-35.565c-13.145,2.054-22.857,10.039-34.887,14.435
			c-13.416,4.903-26.828,11.119-34.537,23.74c-6.338,10.378-8.244,24.244-10.02,36.044c-0.912,6.057-0.998,12.172-1.775,18.23
			c-0.355,2.786-0.717,5.522-0.826,8.21C420.219,409.131,440.629,409.131,440.641,409.131z"/>
		<g>
			<defs>
				<path id="SVGID_1_" d="M519.828,232.8c-1.809-3.848-3.728-6.649-6.67-8.253c-6.889-3.756-14.342-5.058-21.508-6.869
					c-0.315-0.08-0.609-0.088-0.877-0.042c-0.271-0.047-0.563-0.038-0.879,0.042c-7.164,1.811-14.619,3.113-21.508,6.869
					c-2.943,1.604-4.859,4.405-6.672,8.253c-1.25,2.657-2.527,5.811-2.99,9.153l2.57,70.914l62-0.665l-0.471-70.249
					C522.363,238.61,521.082,235.458,519.828,232.8z"/>
			</defs>
			<clipPath id="SVGID_00000117671807164993323040000010532123570634460335_">
				<use xlink:href="#SVGID_1_"  style="overflow:visible;"/>
			</clipPath>
			<path style="clip-path:url(#SVGID_00000117671807164993323040000010532123570634460335_);fill:#3B3B61;" d="M519.828,232.8
				c-1.809-3.848-3.728-6.649-6.67-8.253c-6.889-3.756-14.342-5.058-21.508-6.869c-0.315-0.08-0.609-0.088-0.877-0.042
				c-0.271-0.047-0.563-0.038-0.879,0.042c-7.164,1.811-14.619,3.113-21.508,6.869c-2.943,1.604-4.859,4.405-6.672,8.253
				c-1.25,2.657-2.527,5.811-2.99,9.153l2.57,70.914l62-0.665l-0.471-70.249C522.363,238.61,521.082,235.458,519.828,232.8z"/>
			
				<ellipse style="clip-path:url(#SVGID_00000117671807164993323040000010532123570634460335_);fill:#DBDAEA;" cx="487.334" cy="207.202" rx="29" ry="27"/>
		</g>
		<path style="fill:#3F1C25;" d="M494.469,220.948c-0.529-2.137-3.814-3.325-6.365-2.785c-0.752,0.16-1.42,0.451-1.984,0.83
			c-1.943-0.311-3.791,0.609-4.383,2.053c-0.273,0.664-0.381,1.331-0.488,2.024c0.15-0.968-0.076,0.38-0.119,0.707
			c-0.066,0.499,0.072,1.039,0.164,1.519c0.348,1.796,2.232,3.567,4.539,4.056c3.148,0.668,6.125-1.4,7.684-3.282
			C494.797,224.526,494.898,222.691,494.469,220.948z"/>
		<g>
			<path style="fill:#2D294C;" d="M505.395,234.179c-1.363,7.723-3.305,14.919-8.305,19.961c-4.111,4.147-9.978,6.891-15.832,8.733
				c-7.723,2.43-12.912,2.962-20.658,3.247c-3.478,0.128-6.961,0.035-10.434-0.153c-1.658-0.089-3.313-0.241-4.967-0.402
				c-0.799-0.082-1.6-0.173-2.396-0.272c2.508,0.299-1.197-0.211-1.396-0.244c-6.449-1.058-12.891,1.58-14.762,8.381
				c-1.594,5.794,1.918,13.701,8.383,14.761c18.233,2.99,37.455,2.943,55.129-2.994c9.268-3.113,17.883-8.012,24.791-14.98
				c7.9-7.967,11.678-18.827,13.59-29.657c1.137-6.435-1.637-12.906-8.381-14.761C514.303,224.187,506.535,227.731,505.395,234.179
				L505.395,234.179z"/>
		</g>
		<g>
			<path style="fill:#3F1C25;" d="M489.633,226.898l0.389,7.202c-0.887,0.063-1.781,0.102-2.687,0.102
				c-1.102,0-2.19-0.047-3.263-0.139l0.561-7.165H489.633z"/>
		</g>
		<polygon style="fill:#DBDAEA;" points="498.451,218.937 493.756,213.737 487.313,216.665 487.258,216.77 487.207,216.665 
			480.762,213.737 476.066,218.937 480.361,230.128 487.258,220.472 494.156,230.128 		"/>
		<path style="fill:#FFB39D;" d="M438.232,265.838c-6.502,1.369-11.752,7.879-10.189,14.559c0.895,3.82,4.764,4.382,7.406,2.852
			c0.35,0.059,0.721,0.088,1.119,0.076c3.379-0.106,6.672-1.08,10.063-0.805c2.783,0.226,5.061-2.483,5.084-5.084
			C451.787,269.525,446.137,264.175,438.232,265.838z"/>
		<g>
			<path style="fill:#9393AC;" d="M365.736,276.871c0.63,3.223,3.754,5.836,6.978,5.836h68.28c3.223,0,5.324-2.613,4.695-5.836
				l-8.042-41.143c-0.63-3.223-3.753-5.836-6.977-5.836h-68.28c-3.223,0-5.326,2.613-4.695,5.836L365.736,276.871z"/>
			<path style="fill:#B8B7C9;" d="M404.034,255.535c0.476,3.57-1.839,6.465-5.172,6.465c-3.333,0-6.42-2.895-6.897-6.465
				c-0.476-3.57,1.84-6.465,5.173-6.465C400.471,249.07,403.559,251.965,404.034,255.535z"/>
		</g>
		<path style="fill:#D9924E;" d="M546.23,304.18c4.885-0.503,7.273-7.344,2.43-9.949c-3.012-1.621-5.535-3.282-9.072-3.488
			c-3.426-0.2-6.75,0.156-10.111,0.846c-16.313,3.35-28.254,25.862-32.18,40.145c-1.637,5.955-4.348,15.948,1.154,20.741
			c6.773,5.897,28.033-0.606,34.258-4.649c8.654-5.621,16.25-13.213,18.793-23.522C553.35,316.82,551.271,308.969,546.23,304.18z"/>
	</g>
	<g>
		<g>
			<g>
				<g>
					<path style="fill:#B8B8B8;" d="M75.459,397.809h3.42h3.204h25.584c-0.749-1.278-1.186-2.762-1.186-4.35
						c0-3.596,2.201-6.675,5.328-7.971v-62.984h7.342v63.336c2.725,1.45,4.582,4.316,4.582,7.618c0,1.588-0.437,3.071-1.186,4.35
						h25.583h3.205h3.42v7.342h-3.42v10.414h-3.205V405.15h-31.422v10.414h-3.203V405.15H82.083v10.414h-3.204V405.15h-3.42V397.809
						z"/>
					<path style="fill:#55637A;" d="M87.501,420.254c0,3.879-3.143,7.021-7.021,7.021c-3.877,0-7.02-3.143-7.02-7.021
						c0-3.877,3.143-7.02,7.02-7.02C84.358,413.234,87.501,416.377,87.501,420.254z"/>
				</g>
				<path style="fill:#55637A;" d="M156.754,420.254c0,3.879-3.143,7.021-7.021,7.021c-3.877,0-7.02-3.143-7.02-7.021
					c0-3.877,3.143-7.02,7.02-7.02C153.611,413.234,156.754,416.377,156.754,420.254z"/>
			</g>
			<path style="fill:#55637A;" d="M122.127,420.254c0,3.879-3.143,7.021-7.021,7.021c-3.876,0-7.019-3.143-7.019-7.021
				c0-3.877,3.143-7.02,7.019-7.02C118.984,413.234,122.127,416.377,122.127,420.254z"/>
		</g>
		<path style="fill:#D9924E;" d="M46.464,260.498c0.948-11.364,5.175-20.443,14.929-26.702c7.66-4.915,17.56-5.838,26.418-5.6
			c4.82,0.129,9.673,0.665,14.404,1.584c2.976,0.578,5.646,1.662,8.436,2.518c2.746-1.604,5.997-2.207,8.999-0.972
			c13.729,5.649,22.104,19.311,31.332,30.379c9.64,11.563,18.795,23.411,26.841,36.145c7.064,11.18,13.809,24.434,10.904,38.057
			c-3.289,15.421-17.426,23.134-31.922,24.858c-10.674,1.27-21.715,0.78-32.464,1.304c-12.081,0.589-24.411,0.06-36.224-2.697
			c-12.19-2.846-23.589-9.528-30.942-19.737c-7.235-10.045-7.451-24.227-8.245-36.057C47.974,289.314,45.271,274.789,46.464,260.498
			z"/>
		<g>
			<path style="fill:#923B43;" d="M220.633,406.643c0,0,10.561,7.549,17.099,7.867c6.539,0.316,22.52,8.73,4.924,11.16
				c0,0-21.832-0.283-26.947-7.471l-0.301,6.186l-9.807-0.475c0,0-5.86-14.395,0.865-17.951L220.633,406.643z"/>
			<path style="fill:#923B43;" d="M187.967,407.975c0,0,10.56,7.551,17.098,7.867c6.539,0.318,22.52,8.732,4.924,11.162
				c0,0-21.831-0.283-26.947-7.471l-0.299,6.184l-9.808-0.473c0,0-5.86-14.395,0.864-17.953L187.967,407.975z"/>
			<path style="fill:#7B7068;" d="M92.373,318.2c0,6.259,11.193,11.333,25,11.333s25-5.074,25-11.333
				c0-6.259-11.193-11.333-25-11.333S92.373,311.941,92.373,318.2z"/>
			<g>
				<path style="fill:#685D56;" d="M204.045,409.131c-5.247-17.05-4.713-35.752-12.598-51.997
					c-4.33-8.921-17.157-12.069-25.969-15.109c-13.043-4.499-25.917-9.151-39.238-12.875c-14.268-3.987-7.344-25.442,6.959-21.477
					c14.831,4.113,29.206,9.29,43.713,14.325c13.353,4.634,26.689,10.536,34.285,22.675c6.245,9.983,8.037,23.37,9.716,34.763
					c0.864,5.847,0.902,11.757,1.63,17.607c0.516,4.142,1.045,8.172,0.643,12.089H204.045z"/>
				<path style="fill:#7B7068;" d="M170.692,409.131c-4.226-16.526-4.476-34.193-11.887-49.756
					c-11.628-24.418-42.658-6.297-61.027-13.073c-27.09-9.992-16.246-42.132,11.291-37.831
					c13.146,2.054,22.858,10.039,34.888,14.435c13.416,4.903,26.828,11.119,34.537,23.74c6.338,10.378,8.243,24.244,10.019,36.044
					c0.912,6.057,0.999,12.172,1.775,18.23c0.356,2.786,0.718,5.522,0.827,8.21H170.692z"/>
			</g>
			<g>
				<g>
					<path style="fill:#FCDACA;" d="M157.189,234.179c1.364,7.723,3.306,14.919,8.304,19.961c4.113,4.147,9.979,6.891,15.834,8.733
						c7.723,2.43,12.911,2.962,20.658,3.247c3.477,0.128,6.96,0.035,10.433-0.153c1.659-0.089,3.313-0.241,4.968-0.402
						c0.799-0.082,1.599-0.173,2.396-0.272c-2.509,0.299,1.197-0.211,1.396-0.244c6.448-1.058,12.891,1.58,14.761,8.381
						c1.594,5.794-1.918,13.701-8.382,14.761c-18.232,2.99-37.455,2.943-55.129-2.994c-9.268-3.113-17.883-8.012-24.791-14.98
						c-7.9-7.967-11.678-18.827-13.591-29.657c-1.138-6.435,1.638-12.906,8.382-14.761
						C148.28,224.187,156.049,227.731,157.189,234.179L157.189,234.179z"/>
				</g>
				<path style="fill:#FFB39D;" d="M241.352,264.838c6.501,1.369,11.751,7.879,10.189,14.559c-0.895,3.82-4.763,4.382-7.407,2.852
					c-0.349,0.059-0.721,0.088-1.118,0.076c-3.379-0.106-6.672-1.08-10.063-0.805c-2.784,0.226-5.061-2.483-5.084-5.084
					C227.797,268.525,233.446,263.175,241.352,264.838z"/>
			</g>
			<g>
				<path style="fill:#49291C;" d="M126.248,154.471c0.025,0.586,0.107,1.176,0.264,1.762c1.34,5.037,6.139,10.504,11.826,9.946
					c3.72-0.365,7.295-1.807,9.232-5.234c1.507-2.667,2.223-6.276,1.21-9.267c-1.944-5.741-8.37-10.803-14.713-8.437
					c-2.787,1.04-4.903,2.443-6.542,4.965c-0.781,1.202-1.389,2.67-1.244,4.134c0.016,0.156,0.043,0.311,0.061,0.466
					c-0.012,0.049-0.012,0.096-0.021,0.145c-0.004,0.021-0.008,0.043-0.01,0.064C126.217,153.516,126.193,154.004,126.248,154.471z
					 M134.592,158.336c-0.023-0.009-0.035-0.013-0.055-0.021c0.256,0.028,0.511,0.076,0.768,0.097
					C134.993,158.372,134.77,158.35,134.592,158.336z M134.242,158.324c-0.006-0.003-0.016-0.008-0.021-0.011
					c0.008,0.003,0.016,0.008,0.023,0.011C134.243,158.324,134.242,158.324,134.242,158.324z"/>
				<rect x="117.532" y="203.247" style="fill:#FEAF9A;" width="13.188" height="22.749"/>
				<path style="fill:#FFB39D;" d="M130.72,210.649c-1.902,1.572-4.163,2.488-6.593,2.488c-2.43,0-4.694-0.916-6.595-2.488v-7.402
					h13.188V210.649z"/>
				<path style="fill:#FFB39D;" d="M101.091,180.464c0.138,5.375-0.421,11.749,1.607,16.837
					c6.127,15.377,37.705,15.785,43.062-0.498c1.76-5.349,1.343-11.706,1.426-17.27c0.092-6.158-0.242-12.343-0.803-18.474
					c-0.936-10.22-12.634-14.093-21.095-14.166c-7.664-0.065-22.507,4.251-23.411,14.153
					C101.286,167.487,100.928,173.998,101.091,180.464z"/>
				<g>
					<g>
						<path style="fill:#FFB39D;" d="M145.506,176.688C145.539,176.6,145.533,176.618,145.506,176.688L145.506,176.688z"/>
					</g>
					<g>
						<path style="fill:#FFB39D;" d="M102.746,176.688C102.712,176.6,102.72,176.618,102.746,176.688L102.746,176.688z"/>
						<path style="fill:#FFB39D;" d="M103.925,179.217c-0.292-0.71-0.604-1.383-0.97-2.055c-0.073-0.133-0.166-0.363-0.209-0.474
							c0.031,0.083,0.097,0.259,0.212,0.581c-0.121-0.322-0.257-0.639-0.404-0.948c-0.701-0.917-0.737-0.954-0.104-0.112
							c-0.645-0.907-1.789-1.667-2.944-1.735c-0.128-0.047-0.251-0.096-0.394-0.131c-1.736-0.439-3.504,0.263-4.662,1.581
							c-2.527,2.876-1.781,7.267,0.403,10.058c0.942,1.205,2.671,1.976,4.189,1.911c2.012-0.086,3.634-1.348,4.579-3.076
							C104.576,183.076,104.678,181.052,103.925,179.217z"/>
					</g>
				</g>
				<g>
					<g>
						<path style="fill:#F48364;" d="M139.736,173.894c-3.376,0.806-6.028,2.863-7.319,6.116c-1.385,3.488,1.123,6.617,3.751,8.554
							c-0.165-0.631-0.331-1.262-0.497-1.893c-0.944,1.743-2.242,1.266-3.805,1.319c-0.724,0.025-1.018,0.715-0.759,1.322
							c1.529,3.592,5.816,1.38,6.954-1.245c0.304-0.702,0.205-1.465-0.497-1.893c-6.049-3.687-1.772-8.672,2.55-11.38
							C140.592,174.495,140.283,173.764,139.736,173.894L139.736,173.894z"/>
					</g>
				</g>
				<path style="fill:#49291C;" d="M144.492,180.869c0,1.985-0.919,3.594-2.054,3.594c-1.134,0-2.054-1.609-2.054-3.594
					c0-1.985,0.92-3.594,2.054-3.594C143.573,177.275,144.492,178.884,144.492,180.869z"/>
				<path style="fill:#49291C;" d="M121.242,180.869c0,1.985-0.919,3.594-2.054,3.594c-1.134,0-2.054-1.609-2.054-3.594
					c0-1.985,0.92-3.594,2.054-3.594C120.323,177.275,121.242,178.884,121.242,180.869z"/>
				<g>
					<path style="fill:#492A1C;" d="M123.117,169.654c-1.69-0.197-3.187-0.112-4.808,0.416c-1.554,0.507-3.02,1.336-4.668,0.891
						c-1.083-0.292-1.682-1.425-1.414-2.491c1.121-4.463,8.095-4.205,11.497-3.305C126.155,165.808,125.726,169.958,123.117,169.654
						L123.117,169.654z"/>
				</g>
				<g>
					<path style="fill:#492A1C;" d="M139.914,169.654c1.338-0.197,2.521-0.112,3.805,0.416c1.229,0.507,2.389,1.336,3.692,0.891
						c0.856-0.292,1.331-1.425,1.118-2.491c-0.887-4.463-6.403-4.205-9.096-3.305C137.512,165.808,137.852,169.958,139.914,169.654
						L139.914,169.654z"/>
				</g>
				<g>
					<g>
						<path style="fill:#F48364;" d="M127.617,195.943c-1.187,0.154-2.268,0.108-3.309-0.53c-1.075-0.66-1.558-1.919-2.604-2.621
							c-0.415-0.279-1.026,0.087-1.005,0.577c0.07,1.619,1.32,2.897,2.614,3.747c1.351,0.888,3.016,0.894,4.55,0.645
							C128.889,197.596,128.65,195.809,127.617,195.943L127.617,195.943z"/>
					</g>
				</g>
				<path style="fill:#49291C;" d="M95.259,155.395c2.791,7.248,14.877,9.771,19.003,3.283c1.878,0.616,3.589,1.447,5.88,1.186
					c2.877-0.329,5.588-0.826,8.286-1.916c3.582-1.447,8.095-5.093,10.046-8.45c3.788-6.519-6.053-13.358-11.319-14.71
					c-5.035-1.292-8.119,1.217-10.432,4.673c-3.622-2.311-7.976-3.415-11.907-1.124c-4.139,2.411-7.372,6.896-7.7,11.662
					c-0.127,0.113-0.265,0.213-0.373,0.346c-0.073,0.09-0.146,0.18-0.22,0.27C95.471,151.9,94.6,153.684,95.259,155.395z"/>
				<g>
					<path style="fill:#49291C;" d="M101.287,176.699c-6.788-7.613-7.615-24.121,1.497-30.61c1.184-0.843,2.922-0.202,3.613,0.947
						c4.948,8.23-3.07,18.807-1.376,27.489C105.418,176.557,102.891,178.497,101.287,176.699L101.287,176.699z"/>
				</g>
			</g>
			<path style="fill:#FFE6D7;" d="M91.505,232.8c1.81-3.848,3.729-6.649,6.67-8.253c6.89-3.756,14.343-5.058,21.508-6.869
				c0.315-0.08,0.609-0.088,0.878-0.042c0.271-0.047,0.563-0.038,0.879,0.042c7.164,1.811,14.618,3.113,21.508,6.869
				c2.943,1.604,4.859,4.405,6.671,8.253c1.251,2.657,2.528,5.811,2.991,9.153l-2.57,70.914l-62-0.665l0.47-70.249
				C88.971,238.61,90.252,235.458,91.505,232.8z"/>
			<path style="fill:#3F1C25;" d="M116.865,223.045c0.528-2.772,3.813-4.315,6.364-3.614c0.752,0.207,1.421,0.586,1.984,1.078
				c1.944-0.403,3.792,0.79,4.384,2.665c0.273,0.862,0.381,1.728,0.488,2.627c-0.151-1.256,0.076,0.493,0.119,0.918
				c0.065,0.647-0.072,1.348-0.164,1.971c-0.349,2.331-2.232,4.629-4.539,5.263c-3.149,0.867-6.125-1.817-7.685-4.259
				C116.536,227.689,116.435,225.308,116.865,223.045z"/>
			<polygon style="fill:#FFE7D6;" points="112.882,219.908 117.577,214.708 124.021,217.636 124.075,217.741 124.127,217.636 
				130.572,214.708 135.268,219.908 130.973,231.1 124.075,221.443 117.177,231.1 			"/>
			<polygon style="fill:#3F1C25;" points="126.7,231.536 132.033,299.536 125.7,310.202 118.033,299.536 121.7,231.536 			"/>
			<g>
				<path style="fill:#FCDACA;" d="M105.938,234.179c1.364,7.723,3.306,14.919,8.305,19.961c4.112,4.147,9.978,6.891,15.833,8.733
					c7.723,2.43,12.911,2.962,20.658,3.247c3.477,0.128,6.96,0.035,10.433-0.153c1.659-0.089,3.313-0.241,4.968-0.402
					c0.799-0.082,1.599-0.173,2.396-0.272c-2.509,0.299,1.197-0.211,1.396-0.244c6.448-1.058,12.891,1.58,14.761,8.381
					c1.594,5.794-1.918,13.701-8.382,14.761c-18.232,2.99-37.455,2.943-55.13-2.994c-9.268-3.113-17.882-8.012-24.791-14.98
					c-7.9-7.967-11.677-18.827-13.59-29.657c-1.137-6.435,1.638-12.906,8.381-14.761C97.03,224.187,104.799,227.731,105.938,234.179
					L105.938,234.179z"/>
			</g>
			<path style="fill:#FFB39D;" d="M190.102,264.838c6.501,1.369,11.752,7.879,10.189,14.559c-0.895,3.82-4.764,4.382-7.407,2.852
				c-0.349,0.059-0.721,0.088-1.118,0.076c-3.379-0.106-6.672-1.08-10.063-0.805c-2.784,0.226-5.061-2.483-5.084-5.084
				C176.547,268.525,182.196,263.175,190.102,264.838z"/>
		</g>
		<g>
			<path style="fill:#9393AC;" d="M157.204,280.536c0,2.209,1.111,4,2.482,4h95.369c1.371,0,2.482-1.791,2.482-4l0,0
				c0-2.209-1.111-4-2.482-4h-95.369C158.315,276.536,157.204,278.327,157.204,280.536L157.204,280.536z"/>
			<path style="fill:#B8B7C9;" d="M169.871,253.953c0,4.283,3.471,7.754,7.754,7.754h90.726c4.283,0,7.754-3.472,7.754-7.754
				v-54.668c0-4.283-3.472-7.754-7.754-7.754h-90.726c-4.283,0-7.754,3.472-7.754,7.754V253.953z"/>
			<path style="fill:#9393AC;" d="M174.135,253.953c0,4.283,3.473,7.754,7.756,7.754h90.726c4.283,0,7.754-3.472,7.754-7.754
				v-54.668c0-4.283-3.472-7.754-7.754-7.754h-90.726c-4.283,0-7.756,3.472-7.756,7.754V253.953z"/>
			<g>
				<rect x="222.371" y="214.869" style="fill:#B8B7C9;" width="15.5" height="69.5"/>
				<rect x="226.621" y="218.369" style="fill:#9393AC;" width="8.5" height="23"/>
			</g>
		</g>
		<path style="fill:#D9924E;" d="M65.104,304.18c-4.885-0.503-7.274-7.344-2.431-9.949c3.012-1.621,5.535-3.282,9.072-3.488
			c3.426-0.2,6.751,0.156,10.111,0.846c16.313,3.35,28.254,25.862,32.18,40.145c1.637,5.955,4.349,15.948-1.154,20.741
			c-6.772,5.897-28.033-0.606-34.257-4.649c-8.655-5.621-16.251-13.213-18.794-23.522C57.983,316.82,60.062,308.969,65.104,304.18z"
			/>
	</g>
	<g>
		<path style="fill:#9393AC;" d="M572.08,279.602l-5.949-40.685c-0.155-1.066-1.07-1.857-2.147-1.857h-65.961
			c-0.631,0-1.232,0.274-1.643,0.751c-0.413,0.478-0.598,1.11-0.506,1.734l5.948,40.684c0.155,1.067,1.07,1.857,2.148,1.857h65.961
			c0.632,0,1.231-0.274,1.643-0.751C571.987,280.858,572.172,280.226,572.08,279.602z"/>
		<path style="fill:#B8B7C9;" d="M567.534,277.212l-5.239-35.83c-0.137-0.939-0.943-1.636-1.893-1.636h-58.091
			c-0.555,0-1.083,0.241-1.445,0.662c-0.364,0.42-0.526,0.978-0.446,1.527l5.239,35.83c0.137,0.939,0.942,1.635,1.892,1.635h58.092
			c0.555,0,1.083-0.241,1.445-0.661C567.452,278.319,567.615,277.761,567.534,277.212z"/>
	</g>
	<g>
		<defs>
			<path id="SVGID_00000160876935917933851680000002634373190755964084_" d="M567.534,277.212l-5.239-35.83
				c-0.137-0.939-0.943-1.636-1.893-1.636h-58.091c-0.555,0-1.083,0.241-1.445,0.662c-0.364,0.42-0.526,0.978-0.446,1.527
				l5.239,35.83c0.137,0.939,0.942,1.635,1.892,1.635h58.092c0.555,0,1.083-0.241,1.445-0.661
				C567.452,278.319,567.615,277.761,567.534,277.212z"/>
		</defs>
		<clipPath id="SVGID_00000043435533179610473550000011140841231142113188_">
			<use xlink:href="#SVGID_00000160876935917933851680000002634373190755964084_"  style="overflow:visible;"/>
		</clipPath>
		<g style="opacity:0.6;clip-path:url(#SVGID_00000043435533179610473550000011140841231142113188_);">
			<path style="fill:#FFFFFF;" d="M548.82,231.869c-0.065,3.219,0.689,6.213,1.847,9.197c0.202,0.521,1.166,2.49,0.933,3.031
				c-0.017,0.038-4.38,0.391-5.568,0.554c-4.674,0.644-8.025,2.827-10.956,6.48c-1.475,1.838-2.585,4.25-4.539,5.648
				c-1.965,1.405-4.467,1.875-6.78,2.346c-4.365,0.887-8.712,1.123-12.929,2.686c-4.283,1.587-7.883,3.975-11.402,6.842
				c-3.54,2.885-6.518,6.345-10.316,8.916c-4.23,2.862-8.385,5.322-8.835,10.801c-0.218,2.653,2.528,3.921,4.717,3.593
				c4.395-0.658,8.589-4.508,12.229-6.941c4.091-2.734,7.355-6.59,11.365-9.45c8.386-5.98,19.431-2.835,28.358-7.832
				c4.589-2.568,5.9-8.016,9.944-10.817c1.675-1.161,4.501-1.109,6.405-2.275c1.728-1.059,3.696-2.838,4.709-4.627
				c4.58-8.086-3.78-11.507-4.9-18.73C552.714,228.785,548.868,229.499,548.82,231.869L548.82,231.869z"/>
		</g>
	</g>
	<g>
		<g>
			<rect x="145" y="286.539" style="fill:#553238;" width="6" height="141.331"/>
			<rect x="572" y="286.539" style="fill:#553238;" width="6" height="141.331"/>
		</g>
		<rect x="97.002" y="281.619" style="fill:#DBDAEA;" width="542" height="9.5"/>
	</g>
	<g>
		<path style="fill:#FFB39D;" d="M518.433,265.839c-5.652,1.19-10.351,6.236-10.466,12.138c-0.179,9.11,14.21,4.164,18.866,4.542
			c2.784,0.226,5.061-2.483,5.084-5.084C531.989,269.525,526.34,264.175,518.433,265.839z"/>
		<g>
			<path style="fill:#929159;" d="M601.848,234.179c-1.364,7.723-3.306,14.919-8.305,19.961c-4.112,4.147-9.979,6.891-15.833,8.733
				c-7.723,2.43-12.911,2.962-20.658,3.247c-3.478,0.128-6.96,0.035-10.433-0.153c-1.659-0.089-3.313-0.241-4.968-0.402
				c-0.799-0.082-1.599-0.173-2.396-0.272c2.509,0.299-1.197-0.211-1.396-0.244c-6.448-1.058-12.891,1.58-14.761,8.381
				c-1.594,5.794,1.918,13.701,8.382,14.761c18.232,2.99,37.455,2.943,55.13-2.994c9.268-3.113,17.882-8.012,24.791-14.98
				c7.9-7.967,11.677-18.827,13.59-29.657c1.137-6.435-1.638-12.906-8.381-14.761C610.756,224.187,602.987,227.731,601.848,234.179
				L601.848,234.179z"/>
		</g>
		<g>
			<g>
				<g>
					<path style="fill:#DC9A79;" d="M564.634,405.594c0,0-44.037,19.875-27.519,23.813c16.513,3.945,24.986-7.008,27.716-9.69
						c0,0,4.949,5.631,5.742,1.061C570.572,420.777,571.363,402.371,564.634,405.594z"/>
				</g>
			</g>
			<path style="fill:#646375;" d="M569.23,407.742c-0.06-15.973-5.502-31.817-3.093-47.805c1.323-8.78,11.448-14.89,18.17-19.838
				c9.95-7.323,19.715-14.73,30.108-21.465c11.133-7.211-0.505-23.705-11.673-16.503c-11.581,7.469-22.488,15.727-33.547,23.897
				c-10.179,7.521-20.005,16.12-23.262,28.523c-2.678,10.198-0.642,22.119,0.961,32.304c0.82,5.228,2.363,10.29,3.301,15.485
				c0.662,3.678,1.284,7.264,2.673,10.504L569.23,407.742z"/>
		</g>
		<g>
			<g>
				<g>
					<path style="fill:#DC9A79;" d="M616.634,375.927c0,0-44.037,19.876-27.52,23.813c16.513,3.943,24.986-7.008,27.716-9.689
						c0,0,4.949,5.629,5.742,1.059C622.572,391.109,623.363,372.704,616.634,375.927z"/>
				</g>
			</g>
			<path style="fill:#646375;" d="M621.23,378.075c-0.06-15.973-5.502-31.816-3.093-47.805c1.323-8.78,11.448-14.89,18.17-19.838
				c9.95-7.323,19.715-14.73,30.108-21.465c11.133-7.211-0.505-23.705-11.673-16.502c-11.581,7.469-22.488,15.727-33.547,23.897
				c-10.179,7.521-20.005,16.12-23.262,28.522c-2.678,10.198-0.642,22.119,0.961,32.304c0.82,5.229,2.363,10.29,3.301,15.485
				c0.662,3.678,1.284,7.263,2.673,10.505L621.23,378.075z"/>
		</g>
		<g>
			<path style="fill:#FFB39D;" d="M605.334,171.869c0,0-1.666,12.667-6.333,14c0,0,0.332,5,10.666,4L605.334,171.869"/>
			<g>
				<path style="fill:#49291C;" d="M616.731,158.413c0.257-0.021,0.512-0.069,0.768-0.097c-0.02,0.008-0.031,0.012-0.055,0.021
					C617.267,158.35,617.043,158.372,616.731,158.413z M617.792,158.324c0.008-0.003,0.016-0.008,0.023-0.011
					c-0.006,0.003-0.016,0.008-0.021,0.011C617.794,158.324,617.793,158.324,617.792,158.324z"/>
				<rect x="621.316" y="203.247" style="fill:#FEAF9A;" width="13.188" height="22.749"/>
				<path style="fill:#FFB39D;" d="M650.159,161.047c-0.904-9.902-15.747-14.219-23.411-14.153
					c-8.461,0.073-20.159,3.946-21.095,14.166c-0.56,6.13-0.894,12.315-0.803,18.474c0.083,5.564-0.334,11.922,1.426,17.27
					c5.357,16.283,36.936,15.876,43.063,0.498c2.027-5.088,1.469-11.462,1.606-16.837
					C651.108,173.998,650.75,167.487,650.159,161.047z"/>
				<g>
					<g>
						<path style="fill:#FFB39D;" d="M606.53,176.688C606.497,176.6,606.503,176.618,606.53,176.688L606.53,176.688z"/>
					</g>
					<g>
						<path style="fill:#FFB39D;" d="M649.29,176.688C649.324,176.6,649.316,176.618,649.29,176.688L649.29,176.688z"/>
					</g>
				</g>
			</g>
			<path style="fill:#49291C;" d="M607.28,178.536c0,1.985,0.919,3.594,2.054,3.594c1.134,0,2.054-1.609,2.054-3.594
				c0-1.985-0.92-3.594-2.054-3.594C608.199,174.942,607.28,176.551,607.28,178.536z"/>
			<g>
				<g>
					<path style="fill:#715044;" d="M608.773,167.643c1.217-1.19,2.574,0.994,3.223,1.868c0.518,0.698,1.828,0.782,2.04-0.267
						c0.383-1.903-0.649-3.631-2.346-4.479c-1.799-0.9-3.656-0.13-4.635,1.553C606.426,167.4,607.885,168.512,608.773,167.643
						L608.773,167.643z"/>
				</g>
			</g>
			<path style="fill:#FFFFFF;" d="M610.137,194.708c-0.205-0.154-0.566-0.134-0.773,0c-1.155,0.751-0.98,2.464-2.144,3.338
				c-0.123,0.093-0.249,0.15-0.375,0.21c0.313,0.688,0.689,1.333,1.097,1.954C609.894,199.679,612.193,196.256,610.137,194.708z"/>
		</g>
		<path style="fill:#7B7068;" d="M659.663,318.2c0,6.259-11.193,11.333-25,11.333c-13.807,0-25-5.074-25-11.333
			c0-6.259,11.193-11.333,25-11.333C648.47,306.867,659.663,311.941,659.663,318.2z"/>
		<path style="fill:#929159;" d="M660.531,232.8c-1.81-3.848-3.729-6.649-6.67-8.253c-14.438-7.876-30.352-7.86-44.771-0.001
			c-6.717,3.661-9.458,14.44-9.438,21.322c0.017,5.815,0.269,11.691,0.455,17.506c0.433,13.448,1.092,26.895,1.603,40.341
			c0.016,0.404,0.178,9.151,0.287,9.15c0.003,0,62-0.665,62-0.665l-0.47-70.249C663.065,238.61,661.784,235.458,660.531,232.8z"/>
		<g>
			<g>
				<g>
					<path style="fill:#B8B8B8;" d="M676.577,397.809h-3.42h-3.204h-25.584c0.749-1.278,1.186-2.762,1.186-4.35
						c0-3.596-2.201-6.675-5.328-7.971v-62.984h-7.342v63.336c-2.725,1.45-4.582,4.316-4.582,7.618c0,1.588,0.437,3.071,1.186,4.35
						h-25.583H600.7h-3.42v7.342h3.42v10.414h3.205V405.15h31.422v10.414h3.203V405.15h31.423v10.414h3.204V405.15h3.42V397.809z"/>
					<path style="fill:#55637A;" d="M664.535,420.254c0,3.879,3.143,7.021,7.021,7.021c3.877,0,7.02-3.143,7.02-7.021
						c0-3.877-3.143-7.02-7.02-7.02C667.678,413.234,664.535,416.377,664.535,420.254z"/>
				</g>
				<path style="fill:#55637A;" d="M595.282,420.254c0,3.879,3.143,7.021,7.021,7.021c3.877,0,7.021-3.143,7.021-7.021
					c0-3.877-3.143-7.02-7.021-7.02C598.425,413.234,595.282,416.377,595.282,420.254z"/>
			</g>
			<path style="fill:#55637A;" d="M629.909,420.254c0,3.879,3.143,7.021,7.021,7.021c3.876,0,7.018-3.143,7.018-7.021
				c0-3.877-3.143-7.02-7.018-7.02C633.052,413.234,629.909,416.377,629.909,420.254z"/>
		</g>
		<path style="fill:#D9924E;" d="M705.572,260.498c-0.948-11.364-5.175-20.443-14.929-26.702
			c-31.759-20.379-69.258,3.523-89.59,27.911c-9.64,11.562-18.794,23.41-26.84,36.143c-7.064,11.18-13.809,24.434-10.904,38.057
			c3.289,15.421,17.426,23.134,31.922,24.858c10.674,1.27,21.715,0.78,32.464,1.304c12.081,0.589,24.411,0.06,36.224-2.697
			c12.19-2.846,23.589-9.528,30.942-19.737c7.235-10.045,7.451-24.227,8.245-36.057
			C704.063,289.314,706.765,274.789,705.572,260.498z"/>
		<g>
			<g>
				<path style="fill:#715044;" d="M665.31,193.282C666.301,194.105,665.276,192.602,665.31,193.282L665.31,193.282z"/>
				<path style="fill:#715044;" d="M689.855,207.225c-2.686-5.886-9.075-8.323-11.175-14.356c-2.761-7.938,1.203-17.248-0.31-25.44
					c-2.358-12.767-10.701-23.851-22.963-28.36c-12.494-4.595-26.443,2.835-32.985,13.431c-2.944,4.769-5.305,11.245-4.976,16.917
					c0.347,5.954,3.61,10.607,7.817,14.591c1.901,1.8,3.932,3.456,5.768,5.324c-0.701-0.713,0.01,0.557,0.191,0.622
					c0.089,0.528,0.184,1.188,0.218,1.252c-0.001,0.772-0.075,1.546-0.142,2.311c0.18-2.041-0.363,1.375-0.379,1.446
					c-0.562,2.528-1.339,5.011-2.017,7.51c-3.088,11.374-2.72,23.722,6.667,32.118c10.585,9.469,26.873,16.218,40.491,9.369
					C689.079,237.41,696.006,220.703,689.855,207.225z M677.822,195.397c0.026,0.163,0.091,0.4,0.214,0.745
					c-0.101-0.281-0.211-0.555-0.324-0.827C677.75,195.343,677.791,195.374,677.822,195.397z"/>
				<path style="fill:#715044;" d="M665.31,193.282c-0.025-0.021-0.048-0.039-0.076-0.064c0.028,0.026,0.053,0.05,0.077,0.073
					C665.311,193.289,665.311,193.285,665.31,193.282z"/>
			</g>
			<path style="fill:#FFB39D;" d="M621.085,184.654c0.945,1.725,2.566,2.985,4.576,3.071c1.519,0.065,3.247-0.706,4.19-1.911
				c2.185-2.791,2.931-7.182,0.403-10.058c-2.113-2.404-6.563-1.881-8.335,0.787C620.387,178.849,619.699,182.122,621.085,184.654z"
				/>
			<path style="fill:#715044;" d="M641.14,143.241c0.117,1.345,0.073,1.147-0.131-0.594c-0.191-0.754-0.467-1.478-0.828-2.172
				c-1.07-1.827-2.936-3.108-4.611-4.307c-3.563-2.549-8.889-2.052-12.915-1.424c-6.782,1.057-16.082,4.952-19.099,11.652
				c-3.668,8.146,1.156,16.301,9.773,18.011c7.941,1.577,15.577-0.909,21.686-6.023c2.553-2.137,3.3-5.564,2.69-8.728
				C640.613,149.589,642.776,145.846,641.14,143.241z M620.348,160.653c0.02,0,0.039,0.003,0.059,0.003
				C620.379,160.656,620.359,160.655,620.348,160.653z"/>
		</g>
	</g>
</g>
</svg>
